<svg width="334.74999999999994" height="37.64674068220848" viewBox="0 0 350.00000000000006 39.36179010835839" class="looka-1j8o68f"><defs id="SvgjsDefs1199"></defs><g id="SvgjsG1200" featurekey="K5GtsI-0" transform="matrix(2.69601295067884,0,0,2.69601295067884,-1.5633503285110517,-15.421193512236938)" fill="#f9f7f7"><path d="M11.52 16.42 l1.8 1.82 c-1.44 1.42 -3.3 2.08 -5.32 2.08 c-5.2 0 -7.4 -3.58 -7.42 -7.22 c-0.02 -3.66 2.36 -7.38 7.42 -7.38 c1.9 0 3.7 0.72 5.14 2.14 l-1.76 1.7 c-0.92 -0.9 -2.16 -1.32 -3.38 -1.32 c-3.38 0 -4.84 2.52 -4.82 4.86 c0.02 2.32 1.36 4.74 4.82 4.74 c1.22 0 2.6 -0.5 3.52 -1.42 z M27.22 19.82 l0 0.18 l-3.14 0 l-4.08 -4.68 l-2.54 0 l0 4.68 l-2.64 0 l0 -14.02 c2.22 0 4.44 0.02 6.66 0.02 c3.3 0.02 5.04 2.22 5.04 4.64 c0 1.92 -0.88 3.86 -3.54 4.4 z M21.48 8.46 l-4.02 0 l0 4.48 l4.02 0 c1.68 0 2.4 -1.12 2.4 -2.24 s-0.74 -2.24 -2.4 -2.24 z M34.88 5.720000000000001 c4.82 0 7.22 3.7 7.18 7.36 c-0.04 3.62 -2.26 7.24 -7.18 7.24 s-7.2 -3.54 -7.2 -7.22 s2.36 -7.38 7.2 -7.38 z M34.88 8.12 c-3.3 0 -4.66 2.66 -4.6 5.02 c0.06 2.3 1.3 4.76 4.6 4.76 s4.54 -2.48 4.58 -4.78 c0.04 -2.36 -1.28 -5 -4.58 -5 z M63.540000000000006 6 l-5.04 14 l-2.24 0 l-1.74 -4.4 l-1.48 -4.42 l-1.46 4.46 l-1.7 4.36 l-2.24 0 l-5.14 -14 l2.96 0 l3.3 10.1 l3.4 -10.1 l1.72 0 l3.5 10.1 l3.2 -10.1 l2.96 0 z M70.48 6 c4.8 0 6.94 3.42 7 6.88 c0.06 3.54 -2.1 7.12 -7 7.12 l-5.5 0 l0 -14 l5.5 0 z M67.60000000000001 8.5 l0 8.96 l2.88 0 c3.18 0 4.44 -2.32 4.38 -4.6 c-0.06 -2.18 -1.34 -4.36 -4.38 -4.36 l-2.88 0 z M79.22000000000001 6 l2.64 0 l0 11.56 l7.2 0 l0 2.44 l-9.84 0 l0 -14 z M101.36000000000001 17.4 l0 2.6 l-10.48 0 l0 -14 l10.48 0 l0 2.56 l-7.86 0 l0 3.22 l7.58 0 l0 2.46 l-7.58 0 l0 3.16 l7.86 0 z M113.02000000000001 14.68 l0 -8.7 l2.64 0 l0 14.02 l-1.64 0 l0 0.02 l-7.36 -9.46 l0 9.44 l-2.64 0 l0 -14 l2.14 0 z M123.40000000000002 6 c4.8 0 6.94 3.42 7 6.88 c0.06 3.54 -2.1 7.12 -7 7.12 l-5.5 0 l0 -14 l5.5 0 z M120.52000000000002 8.5 l0 8.96 l2.88 0 c3.18 0 4.44 -2.32 4.38 -4.6 c-0.06 -2.18 -1.34 -4.36 -4.38 -4.36 l-2.88 0 z"></path></g></svg>